<svg xmlns="http://www.w3.org/2000/svg" width="1200" height="630" viewBox="0 0 1200 630">
  <defs>
    <linearGradient id="ssh-og-bg" x1="0" y1="0" x2="1" y2="1">
      <stop offset="0" stop-color="#0c272d"/>
      <stop offset="1" stop-color="#115e59"/>
    </linearGradient>
    <linearGradient id="ssh-og-mark" x1="0" y1="0" x2="0" y2="1">
      <stop offset="0" stop-color="#14b8a6"/>
      <stop offset="1" stop-color="#0f766e"/>
    </linearGradient>
  </defs>
  <rect width="1200" height="630" fill="url(#ssh-og-bg)"/>
  <g transform="translate(434 150) scale(3.5)">
    <rect width="32" height="32" rx="8" fill="url(#ssh-og-mark)"/>
    <path d="M16 6l8 3.4v6.8c0 5.1-3.4 9.6-8 11.2-4.6-1.6-8-6.1-8-11.2V9.4L16 6z" fill="#ffffff"/>
    <path d="M16 11l6 4.7h-2v5.8h-8v-5.8H10L16 11z" fill="#0f766e"/>
    <path d="M14.6 21.5v-2.9a1.4 1.4 0 0 1 2.8 0v2.9z" fill="#ffffff"/>
  </g>
  <text x="600" y="375" font-family="'Outfit', system-ui, sans-serif" font-size="66" font-weight="800" text-anchor="middle">
    <tspan fill="#ffffff">Senior</tspan><tspan fill="#5eead4">Safer</tspan><tspan fill="#ffffff">Home</tspan>
  </text>
  <text x="600" y="430" font-family="system-ui, sans-serif" font-size="28" fill="#a7c6c4" text-anchor="middle">Helping aging adults stay safe, comfortable, and independent at home</text>
</svg>
